<svg width="70" height="70" viewBox="0 0 70 70" fill="none" xmlns="http://www.w3.org/2000/svg">
<path d="M61.25 35C61.25 31.5528 60.571 28.1394 59.2518 24.9546C57.9327 21.7698 55.9991 18.876 53.5616 16.4385C51.124 14.0009 48.2302 12.0674 45.0455 10.7482C41.8607 9.42898 38.4472 8.75001 35 8.75C31.5528 8.75 28.1394 9.42898 24.9546 10.7482C21.7698 12.0673 18.876 14.0009 16.4385 16.4385C14.0009 18.876 12.0674 21.7698 10.7482 24.9546C9.42898 28.1394 8.75 31.5528 8.75 35C8.75 41.9619 11.5156 48.6387 16.4385 53.5615C21.3613 58.4844 28.0381 61.25 35 61.25C41.9619 61.25 48.6387 58.4844 53.5616 53.5616C58.4844 48.6387 61.25 41.9619 61.25 35Z" fill="#D9D9D9"/>
<path d="M37.9168 43.75L29.1668 35L37.9168 26.25" stroke="#0C0C0C" stroke-width="2" stroke-linecap="round" stroke-linejoin="round"/>
</svg>
