<svg width="264" height="73" viewBox="0 0 264 73" fill="none" xmlns="http://www.w3.org/2000/svg">
<g clip-path="url(#clip0_359_451)">
<mask id="mask0_359_451" style="mask-type:luminance" maskUnits="userSpaceOnUse" x="0" y="0" width="264" height="73">
<path d="M264 0H0V73H264V0Z" fill="white"/>
</mask>
<g mask="url(#mask0_359_451)">
<path d="M103.045 41.2413V36.2064H89.3589V32.4092H121.06V36.2064H107.339V41.2413H118.506V53.2819H114.212V44.9904H91.5179V41.2293H103.033L103.045 41.2413ZM118.434 19.3594V29.6574H114.14V23.1566H91.8417V19.3594H118.434Z" fill="#58595B"/>
<path d="M141.583 48.6788H137.337V24.67H124.467V20.8007H141.595V48.6788H141.583ZM153.41 32.0721H158.352V36.374H153.41V53.2211H149.164V18.6738H153.41V32.0721Z" fill="#58595B"/>
<path d="M161.565 40.9759H193.268V44.8092H186.226V53.2087H182.016V44.8092H172.817V53.2087H168.606V44.8092H161.565V40.9759ZM187.701 27.9982C187.701 29.344 187.426 30.6057 186.886 31.7714C186.346 32.9369 185.615 33.9824 184.679 34.8836C183.732 35.7849 182.627 36.4937 181.392 37.0105C180.157 37.5273 178.825 37.7796 177.409 37.7796C175.995 37.7796 174.663 37.5273 173.416 37.0105C172.169 36.4937 171.077 35.7849 170.154 34.8836C169.23 33.9824 168.487 32.9369 167.946 31.7714C167.406 30.6057 167.13 29.332 167.13 27.9982C167.13 26.6643 167.406 25.3545 167.946 24.189C168.487 23.0234 169.218 21.978 170.154 21.0767C171.077 20.1995 172.169 19.5025 173.416 18.9859C174.663 18.4691 175.995 18.2168 177.409 18.2168C178.825 18.2168 180.157 18.4691 181.392 18.9859C182.627 19.5025 183.72 20.1995 184.679 21.0767C185.603 21.978 186.346 23.0234 186.886 24.189C187.426 25.3545 187.701 26.6402 187.701 27.9982ZM183.492 27.9982C183.492 27.169 183.324 26.3999 182.988 25.6789C182.652 24.958 182.233 24.3091 181.717 23.7443C181.153 23.2036 180.493 22.7709 179.761 22.4465C179.03 22.1221 178.25 21.966 177.422 21.966C176.595 21.966 175.815 22.1221 175.084 22.4465C174.352 22.7709 173.704 23.2036 173.128 23.7443C172.612 24.3091 172.193 24.958 171.856 25.6789C171.521 26.3999 171.353 27.181 171.353 27.9982C171.353 28.8153 171.521 29.5602 171.856 30.3053C172.193 31.0383 172.612 31.6753 173.128 32.2159C173.692 32.7808 174.352 33.2253 175.084 33.5377C175.815 33.8502 176.595 34.0064 177.422 34.0064C178.25 34.0064 179.03 33.8502 179.761 33.5377C180.493 33.2253 181.14 32.7928 181.717 32.2159C182.233 31.6753 182.652 31.0383 182.988 30.3053C183.324 29.5723 183.492 28.8033 183.492 27.9982Z" fill="#58595B"/>
<path d="M207.061 18.4688L217.651 36.169L214.174 38.2598L207.061 25.9429L200.019 38.5241L196.469 36.4333L207.061 18.4688ZM203.306 40.9635V48.7142H226.504V52.5114H199.024V40.9756H203.318L203.306 40.9635ZM225.605 40.7713H221.358V18.673H225.605V26.8081H230.546V31.026H225.605V40.7833V40.7713Z" fill="#58595B"/>
<path d="M233.546 25.2469V21.642H241.63V18.2773H246.188V21.642H253.877V25.2469H245.528L254.188 34.0429L251.334 36.7106L243.872 28.96L236.568 37.3235L233.629 34.6077L242.253 25.2349H233.558L233.546 25.2469ZM261.073 45.8432C261.073 47.0088 260.833 48.1023 260.354 49.1116C259.873 50.133 259.237 51.0223 258.447 51.8034C257.643 52.5723 256.694 53.1852 255.604 53.6419C254.513 54.0984 253.337 54.3147 252.102 54.3147C250.865 54.3147 249.726 54.0864 248.623 53.6419C247.52 53.1972 246.559 52.5723 245.767 51.8034C244.977 51.0343 244.329 50.133 243.86 49.1116C243.381 48.0902 243.141 46.9968 243.141 45.8432C243.141 44.6895 243.381 43.596 243.86 42.5746C244.341 41.5532 244.977 40.664 245.767 39.8829C246.559 39.102 247.52 38.5011 248.623 38.0445C249.726 37.5878 250.89 37.3716 252.102 37.3716C253.313 37.3716 254.501 37.5998 255.604 38.0445C256.694 38.5011 257.643 39.114 258.447 39.8829C259.249 40.652 259.885 41.5532 260.354 42.5746C260.833 43.596 261.073 44.6895 261.073 45.8432ZM256.863 45.8072C256.863 44.5213 256.396 43.4038 255.447 42.4785C254.501 41.5532 253.384 41.0847 252.065 41.0847C250.745 41.0847 249.667 41.5532 248.743 42.4785C247.819 43.4038 247.351 44.5213 247.351 45.8072C247.351 47.0929 247.819 48.2464 248.743 49.1597C249.667 50.073 250.782 50.5295 252.065 50.5295C253.349 50.5295 254.513 50.073 255.447 49.1597C256.383 48.2464 256.863 47.1289 256.863 45.8072ZM259.718 37.9843V30.1255H253.684V26.4486H259.718V18.662H264.012V37.9843H259.718Z" fill="#58595B"/>
<path d="M72.8669 36.4939C72.8669 56.6576 56.5543 73 36.4394 73C16.3246 73 0 56.6576 0 36.4939C0 16.3304 16.3126 0 36.4274 0C56.5423 0 72.8549 16.3424 72.8549 36.4939H72.8669Z" fill="white"/>
<path d="M53.5551 33.9581C47.7617 30.0167 40.3371 31.6268 36.4508 37.5511C33.2003 42.5019 28.2946 43.1146 26.3874 43.1146C20.1863 43.1146 15.9401 38.7527 14.6927 34.2344C14.6927 34.2344 14.6688 34.1503 14.6568 34.1143C14.6448 34.0662 14.6328 34.0182 14.6208 33.9581C14.129 32.0715 14.0091 31.1703 14.0091 29.1635C14.0091 18.3487 25.08 6.32024 41.0207 6.32024C56.9615 6.32024 66.6891 18.7692 69.088 25.6907C69.0521 25.5706 69.0041 25.4504 68.968 25.3183C64.3262 11.7997 51.5159 2.06641 36.4388 2.06641C17.4515 2.06641 2.0625 17.4835 2.0625 36.5055C2.0625 53.5089 14.3089 68.0608 31.2813 68.0608C44.8231 68.0608 53.9149 60.4544 58.0889 49.976C60.38 44.2441 58.7608 37.5029 53.5551 33.9701V33.9581Z" fill="#143A62"/>
<path d="M69.2924 26.3638C67.2893 19.6106 57.8736 6.32031 41.0093 6.32031C25.0686 6.32031 13.9976 18.3487 13.9976 29.1637C13.9976 31.1704 14.1175 32.0717 14.6093 33.9581C14.3934 33.1291 14.2974 32.3119 14.2974 31.5068C14.2974 20.2473 25.5483 12.4487 37.1111 12.4487C52.764 12.4487 65.4542 25.1621 65.4542 40.8315C65.4542 53.1244 58.3893 63.771 48.134 68.8779C61.364 64.0834 70.8037 51.394 70.8037 36.4936C70.8037 32.9607 70.3359 29.8605 69.2924 26.3638Z" fill="#E31E30"/>
</g>
</g>
<defs>
<clipPath id="clip0_359_451">
<rect width="264" height="73" fill="white"/>
</clipPath>
</defs>
</svg>
