<svg width="174" height="48" viewBox="0 0 174 48" fill="none" xmlns="http://www.w3.org/2000/svg">
<g clip-path="url(#clip0_359_424)">
<mask id="mask0_359_424" style="mask-type:luminance" maskUnits="userSpaceOnUse" x="0" y="0" width="174" height="48">
<path d="M174 0H0V48H174V0Z" fill="white"/>
</mask>
<g mask="url(#mask0_359_424)">
<path d="M67.9157 27.1166V23.806H58.8955V21.3092H79.7897V23.806H70.7458V27.1166H78.1059V35.0337H75.2757V29.5818H60.3185V27.1087H67.9078L67.9157 27.1166ZM78.0584 12.7285V19.4998H75.2283V15.2253H60.5319V12.7285H78.0584Z" fill="#FAFAFA"/>
<path d="M93.3163 32.0086H90.5178V16.222H82.0352V13.6778H93.3242V32.0086H93.3163ZM101.111 21.0891H104.368V23.9178H101.111V34.9953H98.3126V12.2793H101.111V21.0891Z" fill="#FAFAFA"/>
<path d="M106.486 26.9434H127.381V29.4639H122.74V34.9869H119.965V29.4639H113.902V34.9869H111.127V29.4639H106.486V26.9434ZM123.712 18.4101C123.712 19.295 123.531 20.1246 123.175 20.8911C122.819 21.6575 122.337 22.3449 121.72 22.9375C121.096 23.5301 120.368 23.9962 119.554 24.336C118.74 24.6758 117.862 24.8417 116.929 24.8417C115.997 24.8417 115.119 24.6758 114.297 24.336C113.475 23.9962 112.755 23.5301 112.147 22.9375C111.538 22.3449 111.048 21.6575 110.692 20.8911C110.336 20.1246 110.154 19.2871 110.154 18.4101C110.154 17.533 110.336 16.6718 110.692 15.9054C111.048 15.139 111.53 14.4516 112.147 13.859C112.755 13.2822 113.475 12.8239 114.297 12.4842C115.119 12.1444 115.997 11.9785 116.929 11.9785C117.862 11.9785 118.74 12.1444 119.554 12.4842C120.368 12.8239 121.088 13.2822 121.72 13.859C122.329 14.4516 122.819 15.139 123.175 15.9054C123.531 16.6718 123.712 17.5172 123.712 18.4101ZM120.938 18.4101C120.938 17.8649 120.827 17.3592 120.606 16.8851C120.384 16.4111 120.108 15.9844 119.768 15.613C119.396 15.2575 118.961 14.973 118.479 14.7597C117.997 14.5464 117.483 14.4437 116.937 14.4437C116.392 14.4437 115.878 14.5464 115.396 14.7597C114.914 14.973 114.487 15.2575 114.107 15.613C113.767 15.9844 113.491 16.4111 113.269 16.8851C113.048 17.3592 112.937 17.8728 112.937 18.4101C112.937 18.9474 113.048 19.4372 113.269 19.9271C113.491 20.4091 113.767 20.8279 114.107 21.1834C114.479 21.5548 114.914 21.8471 115.396 22.0525C115.878 22.258 116.392 22.3607 116.937 22.3607C117.483 22.3607 117.997 22.258 118.479 22.0525C118.961 21.8471 119.388 21.5627 119.768 21.1834C120.108 20.8279 120.384 20.4091 120.606 19.9271C120.827 19.4451 120.938 18.9395 120.938 18.4101Z" fill="#FAFAFA"/>
<path d="M136.472 12.1445L143.452 23.783L141.16 25.1578L136.472 17.059L131.831 25.3316L129.491 23.9568L136.472 12.1445ZM133.997 26.9356V32.0319H149.287V34.5287H131.175V26.9435H134.005L133.997 26.9356ZM148.694 26.8092H145.895V12.2788H148.694V17.6279H151.951V20.4013H148.694V26.8171V26.8092Z" fill="#FAFAFA"/>
<path d="M153.928 16.6003V14.23H159.256V12.0176H162.26V14.23H167.328V16.6003H161.825L167.533 22.384L165.652 24.1381L160.734 19.0418L155.92 24.5411L153.983 22.7554L159.667 16.5924H153.936L153.928 16.6003ZM172.071 30.1431C172.071 30.9095 171.913 31.6285 171.597 32.2922C171.28 32.9638 170.861 33.5485 170.34 34.0621C169.81 34.5677 169.185 34.9707 168.466 35.271C167.747 35.5712 166.972 35.7134 166.158 35.7134C165.343 35.7134 164.592 35.5633 163.865 35.271C163.138 34.9786 162.505 34.5677 161.983 34.0621C161.462 33.5564 161.035 32.9638 160.726 32.2922C160.41 31.6206 160.252 30.9016 160.252 30.1431C160.252 29.3845 160.41 28.6655 160.726 27.9939C161.043 27.3223 161.462 26.7376 161.983 26.224C162.505 25.7105 163.138 25.3154 163.865 25.0152C164.592 24.7149 165.359 24.5727 166.158 24.5727C166.956 24.5727 167.739 24.7228 168.466 25.0152C169.185 25.3154 169.81 25.7184 170.34 26.224C170.869 26.7297 171.288 27.3223 171.597 27.9939C171.913 28.6655 172.071 29.3845 172.071 30.1431ZM169.296 30.1194C169.296 29.2739 168.988 28.5391 168.363 27.9307C167.739 27.3223 167.003 27.0142 166.134 27.0142C165.264 27.0142 164.553 27.3223 163.944 27.9307C163.335 28.5391 163.027 29.2739 163.027 30.1194C163.027 30.9648 163.335 31.7233 163.944 32.3238C164.553 32.9243 165.288 33.2245 166.134 33.2245C166.98 33.2245 167.747 32.9243 168.363 32.3238C168.98 31.7233 169.296 30.9885 169.296 30.1194ZM171.178 24.9756V19.8082H167.201V17.3905H171.178V12.2705H174.008V24.9756H171.178Z" fill="#FAFAFA"/>
<path d="M48.0259 23.996C48.0259 37.2543 37.2744 48 24.0169 48C10.7594 48 0 37.2543 0 23.996C0 10.7378 10.7515 0 24.009 0C37.2665 0 48.018 10.7457 48.018 23.996H48.0259Z" fill="white"/>
<path d="M35.2977 22.3293C31.4793 19.7377 26.5858 20.7964 24.0244 24.6918C21.882 27.9471 18.6487 28.35 17.3917 28.35C13.3046 28.35 10.506 25.4819 9.68386 22.511C9.68386 22.511 9.66805 22.4557 9.66014 22.432C9.65224 22.4004 9.64433 22.3688 9.63643 22.3293C9.31229 21.0888 9.23324 20.4962 9.23324 19.1767C9.23324 12.0656 16.53 4.15642 27.0364 4.15642C37.5428 4.15642 43.9542 12.3421 45.5353 16.8932C45.5116 16.8142 45.48 16.7352 45.4562 16.6483C42.3968 7.75937 33.9537 1.35938 24.0165 1.35938C11.5021 1.35938 1.35938 11.4967 1.35938 24.0043C1.35938 35.1846 9.43089 44.753 20.6172 44.753C29.5425 44.753 35.5348 39.7515 38.2859 32.8616C39.7959 29.0927 38.7287 24.6601 35.2977 22.3372V22.3293Z" fill="#143A62"/>
<path d="M45.6699 17.3355C44.3497 12.895 38.1439 4.15625 27.0288 4.15625C16.5224 4.15625 9.22559 12.0653 9.22559 19.1765C9.22559 20.496 9.30464 21.0886 9.62877 22.329C9.48647 21.7839 9.42322 21.2466 9.42322 20.7172C9.42322 13.3137 16.8386 8.18587 24.4595 8.18587C34.7762 8.18587 43.1402 16.5453 43.1402 26.8485C43.1402 34.9315 38.4838 41.932 31.7246 45.29C40.4444 42.1374 46.666 33.7937 46.666 23.9962C46.666 21.6732 46.3577 19.6347 45.6699 17.3355Z" fill="#E31E30"/>
</g>
</g>
<defs>
<clipPath id="clip0_359_424">
<rect width="174" height="48" fill="white"/>
</clipPath>
</defs>
</svg>
